<?xml version="1.0" encoding="UTF-8"?>
<svg xmlns="http://www.w3.org/2000/svg" xmlns:xlink="http://www.w3.org/1999/xlink" width="2063px" height="500px" viewBox="0 0 2062 500" version="1.1">
<g id="surface1">
<path style=" stroke:none;fill-rule:nonzero;fill:rgb(41.568627%,23.529412%,73.72549%);fill-opacity:1;" d="M 0 463.039062 L 85.917969 443.679688 C 171.832031 425.058594 343.667969 385.265625 515.5 376.21875 C 687.332031 367.179688 859.167969 385.265625 1031 424.511719 C 1202.832031 463.039062 1374.667969 520.917969 1546.5 491.972656 C 1718.332031 463.039062 1890.167969 347.273438 1976.082031 289.394531 L 2062 231.523438 L 2062 0 L 1976.082031 0 C 1890.167969 0 1718.332031 0 1546.5 0 C 1374.667969 0 1202.832031 0 1031 0 C 859.167969 0 687.332031 0 515.5 0 C 343.667969 0 171.832031 0 85.917969 0 L 0 0 Z M 0 463.039062 "/>
</g>
</svg>
