<svg width="255" height="178" viewBox="0 0 255 178" fill="none" xmlns="http://www.w3.org/2000/svg">
<g clip-path="url(#clip0_518_229)">
<path d="M127.769 151.455C110.491 151.455 93.7477 146.231 80.3919 136.673C67.0361 127.114 57.894 113.813 54.5233 99.0355C51.1526 84.258 53.7619 68.9185 61.9066 55.6306C70.0513 42.3426 83.2274 31.9285 99.19 26.1627C115.152 20.3968 132.914 19.6359 149.448 24.0096C165.981 28.3834 180.264 37.6211 189.863 50.1489C199.462 62.6767 203.783 77.7193 202.09 92.7138C200.396 107.708 192.793 121.727 180.576 132.381C173.657 138.447 165.428 143.257 156.363 146.531C147.299 149.805 137.58 151.479 127.769 151.455ZM127.769 21.7058C86.9063 21.7058 53.6623 50.6963 53.6623 86.3303C53.6623 121.964 86.9063 150.955 127.769 150.955C168.631 150.955 201.875 121.964 201.875 86.3303C201.875 50.6963 168.631 21.7058 127.769 21.7058Z" fill="#CCCCCC"/>
<path d="M155.498 161.222V95.6121H99.5017V161.222H155.498Z" fill="#2F2E41"/>
<path d="M165.118 93.6086H89.8817V119.652H165.118V93.6086Z" fill="#3F3D56"/>
<path d="M165.118 122.657H89.8817V148.701H165.118V122.657Z" fill="#3F3D56"/>
<path d="M165.118 151.706H89.8817V177.75H165.118V151.706Z" fill="#3F3D56"/>
<path d="M165.118 104.651H89.8817V108.658H165.118V104.651Z" fill="#F78F1E"/>
<path d="M165.118 133.7H89.8817V137.707H165.118V133.7Z" fill="#F78F1E"/>
<path d="M165.118 162.749H89.8817V166.755H165.118V162.749Z" fill="#F78F1E"/>
<path d="M150.473 98.8676C151.425 98.8676 152.196 98.1949 152.196 97.3651C152.196 96.5352 151.425 95.8625 150.473 95.8625C149.521 95.8625 148.75 96.5352 148.75 97.3651C148.75 98.1949 149.521 98.8676 150.473 98.8676Z" fill="#F78F1E"/>
<path d="M156.503 98.8676C157.455 98.8676 158.226 98.1949 158.226 97.3651C158.226 96.5352 157.455 95.8625 156.503 95.8625C155.552 95.8625 154.78 96.5352 154.78 97.3651C154.78 98.1949 155.552 98.8676 156.503 98.8676Z" fill="#F78F1E"/>
<path d="M162.534 98.8676C163.485 98.8676 164.257 98.1949 164.257 97.3651C164.257 96.5352 163.485 95.8625 162.534 95.8625C161.582 95.8625 160.811 96.5352 160.811 97.3651C160.811 98.1949 161.582 98.8676 162.534 98.8676Z" fill="#F78F1E"/>
<path d="M150.473 127.415C151.425 127.415 152.196 126.743 152.196 125.913C152.196 125.083 151.425 124.41 150.473 124.41C149.521 124.41 148.75 125.083 148.75 125.913C148.75 126.743 149.521 127.415 150.473 127.415Z" fill="#F78F1E"/>
<path d="M156.503 127.415C157.455 127.415 158.226 126.743 158.226 125.913C158.226 125.083 157.455 124.41 156.503 124.41C155.552 124.41 154.78 125.083 154.78 125.913C154.78 126.743 155.552 127.415 156.503 127.415Z" fill="#F78F1E"/>
<path d="M162.534 127.415C163.485 127.415 164.257 126.743 164.257 125.913C164.257 125.083 163.485 124.41 162.534 124.41C161.582 124.41 160.811 125.083 160.811 125.913C160.811 126.743 161.582 127.415 162.534 127.415Z" fill="#F78F1E"/>
<path d="M150.473 155.963C151.425 155.963 152.196 155.29 152.196 154.461C152.196 153.631 151.425 152.958 150.473 152.958C149.521 152.958 148.75 153.631 148.75 154.461C148.75 155.29 149.521 155.963 150.473 155.963Z" fill="#F78F1E"/>
<path d="M156.503 155.963C157.455 155.963 158.226 155.29 158.226 154.461C158.226 153.631 157.455 152.958 156.503 152.958C155.552 152.958 154.78 153.631 154.78 154.461C154.78 155.29 155.552 155.963 156.503 155.963Z" fill="#F78F1E"/>
<path d="M162.534 155.963C163.485 155.963 164.257 155.29 164.257 154.461C164.257 153.631 163.485 152.958 162.534 152.958C161.582 152.958 160.811 153.631 160.811 154.461C160.811 155.29 161.582 155.963 162.534 155.963Z" fill="#F78F1E"/>
<path d="M255 177.499H0V178H255V177.499Z" fill="#3F3D56"/>
<path d="M69.4584 67.8798V114.456C69.4582 115.43 69.0142 116.365 68.2241 117.054C67.434 117.743 66.3625 118.13 65.2451 118.13H44.4895C43.3718 118.13 42.2999 117.743 41.5094 117.054C40.719 116.365 40.2747 115.43 40.2744 114.456V67.8798C40.2747 66.9051 40.719 65.9705 41.5094 65.2815C42.2999 64.5925 43.3718 64.2054 44.4895 64.2056H47.0073C46.8837 64.4707 46.8366 64.7582 46.8703 65.043C46.9039 65.3277 47.0173 65.6008 47.2003 65.8383C47.3834 66.0759 47.6305 66.2706 47.9201 66.4054C48.2097 66.5401 48.5327 66.6108 48.861 66.6111H60.6944C61.0227 66.6108 61.3457 66.5401 61.6353 66.4054C61.9249 66.2706 62.172 66.0759 62.3551 65.8384C62.5381 65.6008 62.6515 65.3277 62.6851 65.043C62.7188 64.7582 62.6717 64.4707 62.5481 64.2056H65.2451C66.3625 64.2058 67.434 64.5929 68.2241 65.2819C69.0142 65.9709 69.4582 66.9054 69.4584 67.8798Z" fill="#E6E6E6"/>
<path d="M68.0759 73.1001H41.657V105.154H68.0759V73.1001Z" fill="white"/>
<path d="M59.7026 95.1411H49.1581V95.6666H59.7026V95.1411Z" fill="#E6E6E6"/>
<path d="M65.4632 97.0706H49.1475V97.596H65.4632V97.0706Z" fill="#F78F1E"/>
<path d="M61.9515 98.8882H49.1475V99.4136H61.9515V98.8882Z" fill="#E6E6E6"/>
<path d="M56.6793 100.706H49.1475V101.231H56.6793V100.706Z" fill="#E6E6E6"/>
<path d="M60.4452 102.524H49.1475V103.049H60.4452V102.524Z" fill="#E6E6E6"/>
<path d="M45.5812 94.99H44.3761V96.0409H45.5812V94.99Z" fill="#E6E6E6"/>
<path d="M45.5812 96.8079H44.3761V97.8588H45.5812V96.8079Z" fill="#F78F1E"/>
<path d="M45.5812 98.6255H44.3761V99.6764H45.5812V98.6255Z" fill="#E6E6E6"/>
<path d="M45.5812 100.443H44.3761V101.494H45.5812V100.443Z" fill="#E6E6E6"/>
<path d="M45.5812 102.261H44.3761V103.312H45.5812V102.261Z" fill="#E6E6E6"/>
<path d="M60.2318 77.1067H49.6075V86.3716H60.2318V77.1067Z" fill="#E6E6E6"/>
<path d="M162.819 0.0349121H92.2108V39.4697H162.819V0.0349121Z" fill="#E6E6E6"/>
<path d="M156.075 11.0674H97.5337V30.3585H156.075V11.0674Z" fill="white"/>
<path d="M122.25 14.4097H108.2V15.1098H122.25V14.4097Z" fill="#E6E6E6"/>
<path d="M129.925 16.9802H108.186V17.6804H129.925V16.9802Z" fill="#F78F1E"/>
<path d="M125.246 19.4023H108.186V20.1025H125.246V19.4023Z" fill="#E6E6E6"/>
<path d="M118.221 21.8242H108.186V22.5243H118.221V21.8242Z" fill="#E6E6E6"/>
<path d="M123.239 24.2461H108.186V24.9462H123.239V24.2461Z" fill="#E6E6E6"/>
<path d="M103.434 14.2083H101.828V15.6085H103.434V14.2083Z" fill="#E6E6E6"/>
<path d="M103.434 16.6301H101.828V18.0304H103.434V16.6301Z" fill="#F78F1E"/>
<path d="M103.434 19.0522H101.828V20.4525H103.434V19.0522Z" fill="#E6E6E6"/>
<path d="M103.434 21.4741H101.828V22.8744H103.434V21.4741Z" fill="#E6E6E6"/>
<path d="M103.434 23.896H101.828V25.2963H103.434V23.896Z" fill="#E6E6E6"/>
<path d="M153.202 13.4844H138.827V26.0201H153.202V13.4844Z" fill="#E6E6E6"/>
<path d="M162.789 0H92.1807V2.61589H162.789V0Z" fill="#F78F1E"/>
<path d="M94.4098 1.86245C94.7423 1.86245 95.0119 1.62735 95.0119 1.33735C95.0119 1.04735 94.7423 0.812256 94.4098 0.812256C94.0772 0.812256 93.8076 1.04735 93.8076 1.33735C93.8076 1.62735 94.0772 1.86245 94.4098 1.86245Z" fill="white"/>
<path d="M96.5201 1.86245C96.8527 1.86245 97.1222 1.62735 97.1222 1.33735C97.1222 1.04735 96.8527 0.812256 96.5201 0.812256C96.1876 0.812256 95.918 1.04735 95.918 1.33735C95.918 1.62735 96.1876 1.86245 96.5201 1.86245Z" fill="white"/>
<path d="M98.6305 1.86245C98.963 1.86245 99.2326 1.62735 99.2326 1.33735C99.2326 1.04735 98.963 0.812256 98.6305 0.812256C98.2979 0.812256 98.0283 1.04735 98.0283 1.33735C98.0283 1.62735 98.2979 1.86245 98.6305 1.86245Z" fill="white"/>
<path d="M210.102 73.8254H192.872V81.5884H210.102V73.8254Z" fill="#E6E6E6"/>
<path d="M210.102 101.622H192.872V109.385H210.102V101.622Z" fill="#E6E6E6"/>
<path d="M201.487 104.126C209.416 104.126 215.845 98.5206 215.845 91.6055C215.845 84.6903 209.416 79.0845 201.487 79.0845C193.557 79.0845 187.129 84.6903 187.129 91.6055C187.129 98.5206 193.557 104.126 201.487 104.126Z" fill="#E6E6E6"/>
<path d="M201.487 101.372C207.672 101.372 212.686 96.999 212.686 91.6052C212.686 86.2114 207.672 81.8389 201.487 81.8389C195.301 81.8389 190.287 86.2114 190.287 91.6052C190.287 96.999 195.301 101.372 201.487 101.372Z" fill="white"/>
<path d="M206.505 88.9294H197.819V89.3623H206.505V88.9294Z" fill="#E2E2E2"/>
<path d="M211.25 90.5186H197.811V90.9514H211.25V90.5186Z" fill="#F78F1E"/>
<path d="M208.358 92.0159H197.811V92.4487H208.358V92.0159Z" fill="#E2E2E2"/>
<path d="M204.015 93.5132H197.811V93.946H204.015V93.5132Z" fill="#E2E2E2"/>
<path d="M207.117 95.0105H197.811V95.4433H207.117V95.0105Z" fill="#E2E2E2"/>
<path d="M194.873 88.8049H193.88V89.6706H194.873V88.8049Z" fill="#E2E2E2"/>
<path d="M194.873 90.3022H193.88V91.1679H194.873V90.3022Z" fill="#F78F1E"/>
<path d="M194.873 91.7996H193.88V92.6652H194.873V91.7996Z" fill="#E2E2E2"/>
<path d="M194.873 93.2969H193.88V94.1625H194.873V93.2969Z" fill="#E2E2E2"/>
<path d="M194.873 94.7939H193.88V95.6596H194.873V94.7939Z" fill="#E2E2E2"/>
</g>
<defs>
<clipPath id="clip0_518_229">
<rect width="255" height="178" fill="white"/>
</clipPath>
</defs>
</svg>
